<?xml version="1.0" encoding="UTF-8"?><svg id="Layer_2" xmlns="http://www.w3.org/2000/svg" viewBox="0 0 815.49 560.37"><g id="Make2D::Visible::Curves"><line x1="811.63" y1="44.92" x2="446.43" y2="255.77" fill="none" stroke="#000" stroke-linecap="round" stroke-linejoin="round" stroke-width=".5"/><line x1="439.21" y1="340.94" x2="442.82" y2="338.86" fill="none" stroke="#000" stroke-linecap="round" stroke-linejoin="round" stroke-width=".5"/><line x1="372.67" y1="302.52" x2="439.21" y2="340.94" fill="none" stroke="#000" stroke-linecap="round" stroke-linejoin="round" stroke-width=".5"/><line x1="442.82" y1="338.86" x2="442.82" y2="262.02" fill="none" stroke="#000" stroke-linecap="round" stroke-linejoin="round" stroke-width=".5"/><line x1="217.93" y1="468.7" x2="221.54" y2="466.62" fill="none" stroke="#000" stroke-linecap="round" stroke-linejoin="round" stroke-width=".5"/><line x1="151.38" y1="430.28" x2="217.93" y2="468.7" fill="none" stroke="#000" stroke-linecap="round" stroke-linejoin="round" stroke-width=".5"/><line x1="221.54" y1="466.62" x2="221.54" y2="389.78" fill="none" stroke="#000" stroke-linecap="round" stroke-linejoin="round" stroke-width=".5"/><line x1="811.63" y1="130.09" x2="741.48" y2="89.59" fill="none" stroke="#000" stroke-linecap="round" stroke-linejoin="round" stroke-width=".5"/><line x1="811.63" y1="130.09" x2="811.63" y2="134.26" fill="none" stroke="#000" stroke-linecap="round" stroke-linejoin="round" stroke-width=".5"/><line x1="811.63" y1="134.26" x2="446.43" y2="345.11" fill="none" stroke="#000" stroke-linecap="round" stroke-linejoin="round" stroke-width=".5"/><line x1="512.97" y1="298.35" x2="516.58" y2="296.27" fill="none" stroke="#000" stroke-linecap="round" stroke-linejoin="round" stroke-width=".5"/><line x1="446.43" y1="259.93" x2="512.97" y2="298.35" fill="none" stroke="#000" stroke-linecap="round" stroke-linejoin="round" stroke-width=".5"/><line x1="516.58" y1="296.27" x2="516.58" y2="219.43" fill="none" stroke="#000" stroke-linecap="round" stroke-linejoin="round" stroke-width=".5"/><line x1="446.43" y1="345.11" x2="77.62" y2="558.04" fill="none" stroke="#000" stroke-linecap="round" stroke-linejoin="round" stroke-width=".5"/><line x1="660.5" y1="213.18" x2="664.11" y2="211.1" fill="none" stroke="#000" stroke-linecap="round" stroke-linejoin="round" stroke-width=".5"/><line x1="593.95" y1="174.76" x2="660.5" y2="213.18" fill="none" stroke="#000" stroke-linecap="round" stroke-linejoin="round" stroke-width=".5"/><line x1="664.11" y1="211.1" x2="664.11" y2="134.26" fill="none" stroke="#000" stroke-linecap="round" stroke-linejoin="round" stroke-width=".5"/><line x1="372.67" y1="213.18" x2="3.86" y2="426.11" fill="none" stroke="#000" stroke-linecap="round" stroke-linejoin="round" stroke-width=".5"/><line x1="811.63" y1="134.26" x2="815.24" y2="132.18" fill="none" stroke="#000" stroke-linecap="round" stroke-linejoin="round" stroke-width=".5"/><line x1="741.48" y1=".25" x2="815.24" y2="42.84" fill="none" stroke="#000" stroke-linecap="round" stroke-linejoin="round" stroke-width=".5"/><line x1="815.24" y1="132.18" x2="815.24" y2="42.84" fill="none" stroke="#000" stroke-linecap="round" stroke-linejoin="round" stroke-width=".5"/><line x1="741.48" y1=".25" x2="737.87" y2="2.33" fill="none" stroke="#000" stroke-linecap="round" stroke-linejoin="round" stroke-width=".5"/><line x1="815.24" y1="42.84" x2="811.63" y2="44.92" fill="none" stroke="#000" stroke-linecap="round" stroke-linejoin="round" stroke-width=".5"/><line x1="217.93" y1="391.86" x2="217.93" y2="468.7" fill="none" stroke="#000" stroke-linecap="round" stroke-linejoin="round" stroke-width=".5"/><line x1="439.21" y1="264.1" x2="439.21" y2="340.94" fill="none" stroke="#000" stroke-linecap="round" stroke-linejoin="round" stroke-width=".5"/><line x1="446.43" y1="340.94" x2="811.63" y2="130.09" fill="none" stroke="#000" stroke-linecap="round" stroke-linejoin="round" stroke-width=".5"/><line x1="77.62" y1="553.87" x2="446.43" y2="340.94" fill="none" stroke="#000" stroke-linecap="round" stroke-linejoin="round" stroke-width=".5"/><line x1="74.01" y1="560.12" x2="77.62" y2="558.04" fill="none" stroke="#000" stroke-linecap="round" stroke-linejoin="round" stroke-width=".5"/><line x1=".25" y1="517.54" x2="74.01" y2="560.12" fill="none" stroke="#000" stroke-linecap="round" stroke-linejoin="round" stroke-width=".5"/><line x1="3.86" y1="426.11" x2=".25" y2="428.2" fill="none" stroke="#000" stroke-linecap="round" stroke-linejoin="round" stroke-width=".5"/><line x1="77.62" y1="468.7" x2="74.01" y2="470.78" fill="none" stroke="#000" stroke-linecap="round" stroke-linejoin="round" stroke-width=".5"/><line x1=".25" y1="428.2" x2=".25" y2="517.54" fill="none" stroke="#000" stroke-linecap="round" stroke-linejoin="round" stroke-width=".5"/><line x1="811.63" y1="49.09" x2="811.63" y2="44.92" fill="none" stroke="#000" stroke-linecap="round" stroke-linejoin="round" stroke-width=".5"/><line x1="737.87" y1="2.33" x2="372.67" y2="213.18" fill="none" stroke="#000" stroke-linecap="round" stroke-linejoin="round" stroke-width=".5"/><line x1="365.45" y1="383.53" x2="369.06" y2="381.44" fill="none" stroke="#000" stroke-linecap="round" stroke-linejoin="round" stroke-width=".5"/><line x1="298.91" y1="345.11" x2="365.45" y2="383.53" fill="none" stroke="#000" stroke-linecap="round" stroke-linejoin="round" stroke-width=".5"/><line x1="369.06" y1="381.44" x2="369.06" y2="304.6" fill="none" stroke="#000" stroke-linecap="round" stroke-linejoin="round" stroke-width=".5"/><line x1="144.17" y1="511.29" x2="147.77" y2="509.2" fill="none" stroke="#000" stroke-linecap="round" stroke-linejoin="round" stroke-width=".5"/><line x1="77.62" y1="472.87" x2="144.17" y2="511.29" fill="none" stroke="#000" stroke-linecap="round" stroke-linejoin="round" stroke-width=".5"/><line x1="147.77" y1="509.2" x2="147.77" y2="432.36" fill="none" stroke="#000" stroke-linecap="round" stroke-linejoin="round" stroke-width=".5"/><line x1="734.26" y1="170.6" x2="737.87" y2="168.51" fill="none" stroke="#000" stroke-linecap="round" stroke-linejoin="round" stroke-width=".5"/><line x1="667.71" y1="132.18" x2="734.26" y2="170.6" fill="none" stroke="#000" stroke-linecap="round" stroke-linejoin="round" stroke-width=".5"/><line x1="737.87" y1="168.51" x2="737.87" y2="91.67" fill="none" stroke="#000" stroke-linecap="round" stroke-linejoin="round" stroke-width=".5"/><line x1="586.74" y1="255.77" x2="590.34" y2="253.69" fill="none" stroke="#000" stroke-linecap="round" stroke-linejoin="round" stroke-width=".5"/><line x1="520.19" y1="217.35" x2="586.74" y2="255.77" fill="none" stroke="#000" stroke-linecap="round" stroke-linejoin="round" stroke-width=".5"/><line x1="590.34" y1="253.69" x2="590.34" y2="176.84" fill="none" stroke="#000" stroke-linecap="round" stroke-linejoin="round" stroke-width=".5"/><line x1="291.69" y1="426.11" x2="295.3" y2="424.03" fill="none" stroke="#000" stroke-linecap="round" stroke-linejoin="round" stroke-width=".5"/><line x1="225.14" y1="387.69" x2="291.69" y2="426.11" fill="none" stroke="#000" stroke-linecap="round" stroke-linejoin="round" stroke-width=".5"/><line x1="295.3" y1="424.03" x2="295.3" y2="347.19" fill="none" stroke="#000" stroke-linecap="round" stroke-linejoin="round" stroke-width=".5"/><line x1="734.26" y1="93.75" x2="734.26" y2="170.6" fill="none" stroke="#000" stroke-linecap="round" stroke-linejoin="round" stroke-width=".5"/><line x1="586.74" y1="178.93" x2="586.74" y2="255.77" fill="none" stroke="#000" stroke-linecap="round" stroke-linejoin="round" stroke-width=".5"/><line x1="512.97" y1="221.51" x2="512.97" y2="298.35" fill="none" stroke="#000" stroke-linecap="round" stroke-linejoin="round" stroke-width=".5"/><line x1="660.5" y1="136.34" x2="660.5" y2="213.18" fill="none" stroke="#000" stroke-linecap="round" stroke-linejoin="round" stroke-width=".5"/><line x1="811.63" y1="49.09" x2="811.63" y2="130.09" fill="none" stroke="#000" stroke-linecap="round" stroke-linejoin="round" stroke-width=".5"/><line x1="365.45" y1="306.69" x2="365.45" y2="383.53" fill="none" stroke="#000" stroke-linecap="round" stroke-linejoin="round" stroke-width=".5"/><line x1="144.17" y1="434.45" x2="144.17" y2="511.29" fill="none" stroke="#000" stroke-linecap="round" stroke-linejoin="round" stroke-width=".5"/><line x1="291.69" y1="349.27" x2="291.69" y2="426.11" fill="none" stroke="#000" stroke-linecap="round" stroke-linejoin="round" stroke-width=".5"/><line x1="77.62" y1="472.87" x2="446.43" y2="259.93" fill="none" stroke="#000" stroke-linecap="round" stroke-linejoin="round" stroke-width=".5"/><line x1="446.43" y1="255.77" x2="77.62" y2="468.7" fill="none" stroke="#000" stroke-linecap="round" stroke-linejoin="round" stroke-width=".5"/><line x1="3.86" y1="426.11" x2="77.62" y2="468.7" fill="none" stroke="#000" stroke-linecap="round" stroke-linejoin="round" stroke-width=".5"/><line x1="77.62" y1="558.04" x2="77.62" y2="468.7" fill="none" stroke="#000" stroke-linecap="round" stroke-linejoin="round" stroke-width=".5"/><line x1=".25" y1="428.2" x2="74.01" y2="470.78" fill="none" stroke="#000" stroke-linecap="round" stroke-linejoin="round" stroke-width=".5"/><line x1="74.01" y1="470.78" x2="74.01" y2="560.12" fill="none" stroke="#000" stroke-linecap="round" stroke-linejoin="round" stroke-width=".5"/><line x1="446.43" y1="259.93" x2="811.63" y2="49.09" fill="none" stroke="#000" stroke-linecap="round" stroke-linejoin="round" stroke-width=".5"/><line x1="737.87" y1="2.33" x2="811.63" y2="44.92" fill="none" stroke="#000" stroke-linecap="round" stroke-linejoin="round" stroke-width=".5"/></g></svg>