<?xml version="1.0" encoding="UTF-8"?><svg id="Layer_2" xmlns="http://www.w3.org/2000/svg" viewBox="0 0 409.5 435.6"><g id="Layer_1-2"><path id="path21" d="m401.25,199.34c-3.67-7.76-32.05-39.45-68.18-61.72-15.91-9.8-65.14-39.71-106.09-49.23-4.43-1.03-8.24-3.18-12.77-2.3-1.88.36-4.57-2.51-1.27-4.28,1.8-.98,3.64-1.79,12.77-1.23-7.56-5.92-10.17-5.18-22.55-5.44,2.82-5.09,17.27-4.49,17.27-4.49,0,0-6.5-4.48-26.31-3.85,4.12-3.21,11.92-4.47,11.92-4.47,0,0-10.59-5.01-23.24.29-1.02.42-2.21,1.37-4.65,1.42-2.41.06-8.37-1.08-9.32-1.35-.95-.26-4.73-1.12-4.17-4.65.53-3.53,3.54-3.49,4.27-3.54.77-.07,9.67,1.01,12.16-3.32,1.71-2.92,5.13-14.52-2.81-18.23-11.38-5.3-17.3-1.57-19.06-1.24-1.73.34-4.03-1.58-4.03-1.58,0,0-8.53-9.67-11.31-12-2.77-2.32-10.93-6.66-17.2-8.03-1.37-.3-3.84-1.09-4.2-1.45-1.38-1.27-6.09-2.19-7.8-2.11-2.09.09-6.63-.83-9.25,2.89-1.65,2.37-2.88,2.37-6.04,2.77-3.16.38-11.39-.46-11.39-.46,0,0-10.68-.5-14.02-3.05-1.56-1.18-6.34-5.99-7.62-7.72-1.27-1.71-3.4-.79-3.26-.15.69,3.09-.15,8.66-3.49,12.16-3.8,3.97-8.09,7.68-8.84,8.57-.78.86-2.11,5.22.37,6.97,2.48,1.77,4.41,3.07,4.41,3.07,0,0-2.07,10.8-1.84,14.08-2.37-1.15-6.45-3.65-8.89-5.83-15.97-14.29-16.75-29.56-20.12-30.27-3.37-.72-8.78,16.95.14,29.63,10.31,14.65,31.04,18.84,31.04,18.84,0,0-3.6,4.3-3.44,10.41-3.69,1.71-4.24,2.93-4.24,2.93,0,0-.4,2.43,1.83,4.43,64.37,1.15,108.32,66.03,94.72,137.85-1.97,10.44-10.4,27.53-13.77,35.04-3.37,7.49-4.78,19.83-4.78,19.83,0,0-1.16,3.82-3,3.48-1.84-.36-1.9-1.89-1.79-2.84.38-1.43-.65-7.17,0-10.65.66-3.51-1.24-6.12-1.24-6.12,0,0,5.4-11.1-6.99-21.44,1.76,12.91-2.45,15.6-2.45,15.6,0,0-4.62-17.29-21.26-17.43,6.92,6.61,7.67,15.73,7.9,16.39-1.9-4.21-17.97-16.14-28.24-1.26,16.28,1.69,18.75,8.14,18.75,8.14,0,0-19.16-8.2-28.27,10.65,9.39-2.09,19.05.22,19.05.22,0,0-11.68,2.2-12.23,12.6,6.48-2.91,16.29-.34,16.29-.34,0,0-.31,0-.25.99,1.55.57,8.28,11.9,14.13,15.04,5.86,3.15,40.62,4.57,55.41-1.7,3.77-1.59,3.96-.89,5.52-5.5,5.12-15.18,21.67-48.89,35.22-74.12,9.07-16.94,17.49-30.04,17.58-31.14.16-2.12-7.95-12.94-9.08-14.38-1.13-1.42,1.12-2.08,1.12-2.08,0,0,9.37,5.19,12.42,10.03,3.04,4.85,1.74,6.17.97,8.65-.79,2.5-7.37,20.36-7.37,20.36,0,0,70.71,2.95,87.24,10.66-18.05,1.07-25.68,2.36-33.33,3.7-13.15,2.3-25.89,16.95-24.79,21.53,4.58,19.04,4.25,63.02,4.54,66.61.31,3.58,4.87,5.57,6.64,5.76,1.78.16,11.18.62,11.96,2.16.82,1.6-.52,2.1-.52,2.1,0,0-2.15,1.5-5.91,1-3.73-.5-22.28-6.59-25.67-10.77-3.4-4.21-5.08-6.34-5.08-6.34,0,0,2.84-18.13-14.23-16.83,5.77,9.04,1,12.74,1,12.74,0,0-6.28-13.7-27.65-8.07,14.04,6.21,14.29,10.42,14.29,10.42,0,0-11.54-5.9-23.97,5,15.81.84,17.69,7.22,17.69,7.22,0,0-18.7-3.75-23.1,15.67,13.06-7.5,20.77-2.8,20.77-2.8,0,0-19.93,5.45-15.23,23.51,7.99-7.5,17.8-9.06,17.8-9.06l.25.83s4.59,2.23,8.82,2.47c4.25.23,5.28-.41,4.82-2.83-.46-2.4.54-5.09.61-6,.08-.91,1.61-1.09,1.61-1.09,0,0,.96-.23,1.22,1.19.56,3.19-1.82,5.66,1.02,9.39,2.85,3.73,7.51,3.1,8.94,3.73,1.42.59,9.47,2.51,9.47,2.51,0,0,20.79,3.01,28.13.17,5.15-1.98,20.47-11.26,24.81-17.96,2.12-3.24,3.13-7.48,3.79-12.15,2.49-17.91,8.37-37.34,21.45-47.01,1-.77,3.09-1.27,4.2-1.89,1.23-.72,2.32-.95,2.84-2.16.46-2.83-4.16-32.03-4.43-42.24-.49-18.47-13.04-36.12-13.04-36.12,0,0,.09-1.21,1.54-1.46,1.44-.26,3.76,1.21,3.76,1.21,0,0,7.5,3.6,12.41,37.71,4.91,34.13,2.65,62.7,8.74,75.8,1.83,3.92,10.44,19.6,17.26,34.83,5.64,12.57,9.58,24.86,11.85,30.05,5.01,11.5-.49,25.89-2.71,27.29-2.23,1.43-2.32.05-3.1-.45-.74-.54.51-5.9.51-5.9,0,0,2.24-2.51-.51-7.32-2.74-4.79-15.94-8.72-15.94-8.72,0,0-1.93-1.54-3.2-2.33,1.91-13.61-18.81-16.9-18.81-16.9,0,0,6.06,9.62,4.8,18.61-15.53-12.74-28.98-1.23-28.98-1.23,0,0,12,2.72,17.09,12.78-21.01-6.5-23.96,9.51-23.96,9.51,0,0,8.77-3.65,17.68,4.05-20.04.7-17.59,17.07-17.59,17.07,0,0,5.52-6.87,20.79-.88-.35.44-13.15,9.43-6.02,25.2,1.96-3.91,6.87-10.2,12.52-12.35.52.77.64.72.8.87,0,0,12.55-4.9,18.88-4.81,6.3.09,11.49-.09,19.64-.6,8.2-.52,13.06-4.27,16.94-6.35,3.92-2.09,20.51-18.06,24.46-21.32,3.95-3.26,5.18-9.06,5.18-9.06,0,0,3.42-11.32,5.64-30.25,2.19-18.94,5.26-49.84,5.52-66.46.33-22.71-12.66-75.82-12.66-75.82,0,0,0-1.71,1.24-2.08,1.21-.36,1.16.06,2.7,2.81,1.52,2.75,3.23,16.41,5.77,18.62,1,.87,2.29,2.98,6.53,1.84,4.25-1.17,4.41-6.9,5.3-11.39.83-4.44-4.49-12.13-8.17-19.91M66.05,36.68c.47.2,1,.51,1,.51,0,0-1.48,9.64-.27,14.05-5.75-2.52-10.41-4.46-10.41-4.46,0,0,5.91-8.57,9.68-10.1m-1.08,32.8c-.23,0-.9-.14-1.85-.27-4.14-3.84-4.27-10.19-4.27-10.19,0,0,9.45,2.8,11.03,3.61-.85,2.03-4.34,4.53-4.91,6.85m11.63,2.42c-1.16-.44-3.77-3.06-3.79-4.69-.04-2.24-.5-3.67-.5-3.67,0,0,13.8,4.51,17.55,11.8-5.59-1.67-12.1-3.01-13.26-3.44m-8.38-19.98s4.85-7.24,8.87-8.99c12.82,7.58,18.63,20,20.54,28.69-6.93-9.73-29.41-19.7-29.41-19.7"/><path id="path23" d="m64.02,171.38c17.12-4.21,35.34-22.08,48.04-33.68,7.23-6.56,12.4-9.92,13.83-10.96,1.96,1.75,10.29,16.61,14.01,30.83,2.87,11,2.12,22.2,1.81,25.45-.9,9.79-7.55,11.47-7.55,11.47,0,0-40.45,11.35-47.31,10.9-3.18-.21-27.81,4.58-34.87,3.62-18.53-2.5-22.66-11.48-22.66-11.48l-8.65-16.32s-1.03-3.76,2.34-2.5c3.37,1.28,3.8,1.39,6.84,2.33,3.02.95.73-2.15.73-2.15,0,0-2.97-1.8-5.6-3.05-8.38-4.07-8.8-16.5-8.8-16.5,0,0,0-10.25.72-17.73.73-7.5-16.9-7.7-16.9-7.7,0,0,7.29-13.46,27.69-4.67.48-7.36-17.45-13.62-17.45-13.62,0,0,11.63-11.2,31.47,5.91,1.56-11.82-8.44-21.68-8.44-21.68,0,0,16.52-2.27,22.29,20.61,7.22-5.26,3.6-20.61,3.6-20.61,0,0,15.52,9.35,9.9,25.09,8.32-1.1,11.87-11.65,11.87-11.65,0,0,5.91,11.36-4.85,21.86-4.05,3.93-4.86,2.69-4.86,2.69,0,0-17.36,20.58-7.91,48.02,1.21,3.55,3.59,1.02,3.96-.53.36-1.53-.27-7.33-3.23-13.95"/><path id="path25" d="m145.02,15.61s11.68,11.69,12.78,13.17c.92,1.23,8.39-2.53,12.14-1.46,2.3.66-.97-6.78-2.33-8.93-1.38-2.17-6.02-7.63-11.9-6.87-5.02.66-10.69,4.09-10.69,4.09"/><path id="path27" d="m90.68,71.81c-5.9-7.95-19.21-11.74-34.56-16.41-11.07-3.38-22.99-8.88-28.7-18.02-2.99-4.78-4.29-9.94-4.29-14.5,0-3.45.6-6.45,1.3-8.37.27.62.54,1.26.79,1.89,2.5,6.01,6.52,16.29,17.49,25.78,5.22,4.53,14.73,7.87,23.97,11.9,9.91,3.97,20.48,9.7,26.77,16.81,0,0,3.98,4.92,4.3,6.52-.94-.22-2.41-.64-4.21-1.04-.58-1.72-2.85-4.56-2.85-4.56" fill="#fff"/><path id="path29" d="m54.57,68.53c1.62.05,3.67-.06,5.29.19-2.22-1.73-2.94-8.23-2.94-8.23,0,0-2.42,3.56-2.35,8.04" fill="#fff"/><path id="path31" d="m67.14,69.92c1.57.15,2.72.55,5.34,1.14-2.28-1.72-1.17-4.67-2.04-6.03-1.76,2.68-2.77,2.93-3.3,4.88" fill="#fff"/><path id="path33" d="m68.55,47.87c2.61-3.92,6.09-6.22,6.27-6.27-1.13-.6-5.78-3.27-5.78-3.27,0,0-.74,9.16-.49,9.54" fill="#fff"/><path id="path35" d="m55.92,43.75s5.53-7.14,7.85-8.14c-3.51-1.23-4.98-2.16-6.12-2.89-1.24,5.64-1.72,11.04-1.72,11.04" fill="#fff"/><path id="path37" d="m287.21,224.99s14.19-1.51,21.74,5.65c-.05-1.36-.66-9.06-.66-9.06,0,0-13.54-5.56-21.08,3.41" fill="#fff"/><path id="path39" d="m115.71,14.2s3.84.49,5.04,4.37c1.16,3.78,1.54,9.32-1.65,20.52-.3,1.03-2.28.74-2.28-.56s1.51-6.86,1.98-10.13c.47-3.26.21-7.31-.82-8.33-.86-.85-2.46-1.58-2.8-1.66-.35-.09-2.24-.56-1.78-2.42.47-1.83,2.3-1.78,2.3-1.78" fill="#fff"/><path id="path41" d="m116.18,25.31c1.94-.49,1.16-2.55-1.16-3.53-2.33-.98-7.79.22-9.68,5.37-1.74,4.7,5.61,8.98,7.19,8.98,2.67,0,3.49-3.61,1.94-4.44-1.56-.81-4.05-1.19-3.75-3.3.3-2.11,3.53-2.62,5.47-3.09" fill="#fff"/><path id="path43" d="m70.16,127.98s4.47.34,9.14-6.03c-.62,5.85-5.55,10.62-5.55,10.62l-3.59-4.59Z" fill="#fff"/><path id="path45" d="m7.24,131.5c6.67-4.91,19.4.78,19.4.78l-6.83,5.39s-2.45-5.81-12.57-6.17" fill="#fff"/><path id="path47" d="m18.35,115.63c9.45-2.54,22.07,9.23,22.07,9.23,0,0-7.06,3.22-9.15,4.15.18-.75-.63-9.07-12.92-13.38" fill="#fff"/><path id="path49" d="m40.2,103.92c9.03,3.45,11.98,18.52,11.98,18.52l-7.41,1.15s2.48-9.41-4.57-19.67" fill="#fff"/><path id="path51" d="m58.39,122.66c3.58-3.39,6.06-8.82,4.85-15.41,2.33,2.28,4.99,11.44,2.07,17.89-1.06-.61-2.33-2.08-6.92-2.48" fill="#fff"/><path id="path53" d="m117.57,250.26c-1.24-.85-3.21-1.31-4.58-1.37,3.96-3.61,3.34-9.29,3.34-9.29,0,0,3.4,6.06,1.24,10.67" fill="#fff"/><path id="path55" d="m107.77,248.79c-3.62.17-6.19.89-6.91,1.27-.11-10.73-3.61-15.79-3.61-15.79,0,0,8.31,5.36,10.52,14.52" fill="#fff"/><path id="path57" d="m97.47,251.21c-1.9,1.29-1.55.75-4.54,2.87-3.21-5.87-6.7-10.87-18.73-11.66,9.45-6.37,20.84,2.19,23.28,8.79" fill="#fff"/><path id="path59" d="m66.42,258.99c3.61-6.39,17.3-6.18,23.85-2.15-2.14,2.41-2.66,3.49-3.53,6.18-5.94-4.19-17.01-4.23-20.32-4.03" fill="#fff"/><path id="path61" d="m71.22,271.44c4.79-6.03,14.01-5.66,14.14-5.39-.33.41-2.1,5.48-2.13,6.15-.46-.33-5.43-1.87-12.01-.76" fill="#fff"/><path id="path63" d="m220.14,297.19c-2.04-.55-4.81-1.19-6.73-1.61.82-.72,3.28-6.69.82-11.29,1.83.59,6.19,2.4,5.91,12.9" fill="#fff"/><path id="path65" d="m200.8,297.07c2.66-1.55,4.39-1.66,6.41-1.49-2.14-5.97-13.41-8.74-15.39-8.15,1.22.61,8.85,4.86,8.98,9.64" fill="#fff"/><path id="path67" d="m181.01,299.53c7.78-3.48,14.83-.31,15.37.09-.89.8-3.22,3.19-4.26,5.48-1.52-4.14-11.11-5.58-11.11-5.58" fill="#fff"/><path id="path69" d="m173.05,318.08c.67-1.51,8.17-8.54,16.18-5.83-1.37,2.25-1.6,3.55-1.07,5.51-7.76-3.62-14.84.25-15.11.32" fill="#fff"/><path id="path71" d="m175.4,339.05c2.25-9.75,9.37-12.28,12.85-13.79-.16,1.53.22,5.92.92,7.15-.92-.24-9.63,1.86-13.77,6.64" fill="#fff"/><path id="path73" d="m322.74,367.08c-2.45.58-6.1,1.94-7.41,2.75.67-5.92-.89-11.78-2.52-14.45,2.8.55,10.96,4.43,9.93,11.7" fill="#fff"/><path id="path75" d="m303.78,380.13c-.67-2.6-7.4-11.09-13.66-12.64,4.97-2.55,13.46-1.87,21.01,5.14-3.18,1.97-6.61,6.17-7.35,7.5" fill="#fff"/><path id="path77" d="m281.18,386.56c4.29-7.25,16.74-3.73,20.23-2.16-1.6,1.66-3.1,4.62-3.64,9.29-2.9-5.83-12.55-8-16.6-7.13" fill="#fff"/><path id="path79" d="m279.78,405.58c-.28.7,2.21-9.17,17.32-7.79-.63,3.74-.71,5.33-.33,9.07-9.62-4.61-16.99-1.28-16.99-1.28" fill="#fff"/><path id="path81" d="m292.07,428.21s-1.05-8,5.77-13.9c.53,3.44,1.46,5.47,2.76,6.86-4.11,1.19-8.52,7.04-8.52,7.04" fill="#fff"/><path id="path83" d="m60.32,129.96c-3.38,2.85-6.79,2.14-9.87,5.35-2.23,2.32-8.33,10.34-5.84,23.92,1.63,8.86,2.88,24.36,3.81,29.4,1.26,6.77-2.94,12.94-5.67,12.94" fill="none" stroke="#fff" stroke-linecap="round" stroke-linejoin="round" stroke-width="2"/></g></svg>