<?xml version="1.0" encoding="UTF-8"?><svg id="Layer_2" xmlns="http://www.w3.org/2000/svg" viewBox="0 0 383.63 540.49"><g id="Layer_1-2"><path d="m148.08,244.61c9.29,0,15.84,5.9,15.84,15.05s-6.55,15.12-15.84,15.12h-13.61v21.1h-5.47v-51.27h19.08Zm-13.61,4.9v20.38h13.18c6.41,0,10.8-3.46,10.8-10.22s-4.39-10.15-10.8-10.15h-13.18Z" fill="#231f20"/><path d="m191.92,244.61c5.76,0,10.01,1.66,13.46,5.4,4.54,4.9,4.54,12.39,4.54,20.23s0,15.34-4.54,20.23c-3.46,3.74-7.71,5.4-13.46,5.4h-17.57v-51.27h17.57Zm-12.1,4.9v41.48h11.16c3.89,0,7.49-.86,10.08-3.74,3.31-3.53,3.38-9.87,3.38-16.99s-.07-13.47-3.38-16.99c-2.59-2.88-6.19-3.74-10.08-3.74h-11.16Z" fill="#231f20"/><path d="m254.64,249.51h-26.35v18.87h22.47v4.9h-22.47v22.61h-5.47v-51.27h31.83v4.9Z" fill="#231f20"/><polyline points="381.13 136.37 286.47 136.37 286.47 2.5" fill="none" stroke="#010101" stroke-width="5"/><polygon points="381.13 136.37 286.47 2.5 2.5 2.5 2.5 537.99 381.13 537.99 381.13 136.37" fill="none" stroke="#010101" stroke-width="5"/></g></svg>